TITLE ""
FILE "Step2_Track09.mp3" MP3
  TRACK 01 AUDIO
    TITLE "Step2_Track09_01"
    INDEX 01 00:00:00
  TRACK 02 AUDIO
    TITLE "Step2_Track09_02"
    INDEX 01 00:00:26
  TRACK 03 AUDIO
    TITLE "Step2_Track09_03"
    INDEX 01 00:01:61
  TRACK 04 AUDIO
    TITLE "Step2_Track09_04"
    INDEX 01 00:02:46
  TRACK 05 AUDIO
    TITLE "Step2_Track09_05"
    INDEX 01 00:03:40
  TRACK 06 AUDIO
    TITLE "Step2_Track09_06"
    INDEX 01 00:03:58
  TRACK 07 AUDIO
    TITLE "Step2_Track09_07"
    INDEX 01 00:05:49
  TRACK 08 AUDIO
    TITLE "Step2_Track09_08"
    INDEX 01 00:06:01
  TRACK 09 AUDIO
    TITLE "Step2_Track09_09"
    INDEX 01 00:06:74
  TRACK 10 AUDIO
    TITLE "Step2_Track09_10"
    INDEX 01 00:07:01
  TRACK 11 AUDIO
    TITLE "Step2_Track09_11"
    INDEX 01 00:09:21
  TRACK 12 AUDIO
    TITLE "Step2_Track09_12"
    INDEX 01 00:09:43
  TRACK 13 AUDIO
    TITLE "Step2_Track09_13"
    INDEX 01 00:10:38
  TRACK 14 AUDIO
    TITLE "Step2_Track09_14"
    INDEX 01 00:10:50
  TRACK 15 AUDIO
    TITLE "Step2_Track09_15"
    INDEX 01 00:12:33
  TRACK 16 AUDIO
    TITLE "Step2_Track09_16"
    INDEX 01 00:12:62
  TRACK 17 AUDIO
    TITLE "Step2_Track09_17"
    INDEX 01 00:13:64
  TRACK 18 AUDIO
    TITLE "Step2_Track09_18"
    INDEX 01 00:14:12
  TRACK 19 AUDIO
    TITLE "Step2_Track09_19"
    INDEX 01 00:16:01
  TRACK 20 AUDIO
    TITLE "Step2_Track09_20"
    INDEX 01 00:16:29
  TRACK 21 AUDIO
    TITLE "Step2_Track09_21"
    INDEX 01 00:17:21
  TRACK 22 AUDIO
    TITLE "Step2_Track09_22"
    INDEX 01 00:17:48
  TRACK 23 AUDIO
    TITLE "Step2_Track09_23"
    INDEX 01 00:20:19
  TRACK 24 AUDIO
    TITLE "Step2_Track09_24"
    INDEX 01 00:20:50
  TRACK 25 AUDIO
    TITLE "Step2_Track09_25"
    INDEX 01 00:21:52
  TRACK 26 AUDIO
    TITLE "Step2_Track09_26"
    INDEX 01 00:22:04
  TRACK 27 AUDIO
    TITLE "Step2_Track09_27"
    INDEX 01 00:24:05
  TRACK 28 AUDIO
    TITLE "Step2_Track09_28"
    INDEX 01 00:24:21
  TRACK 29 AUDIO
    TITLE "Step2_Track09_29"
    INDEX 01 00:25:24
  TRACK 30 AUDIO
    TITLE "Step2_Track09_30"
    INDEX 01 00:25:46
  TRACK 31 AUDIO
    TITLE "Step2_Track09_31"
    INDEX 01 00:27:29
  TRACK 32 AUDIO
    TITLE "Step2_Track09_32"
    INDEX 01 00:27:60
  TRACK 33 AUDIO
    TITLE "Step2_Track09_33"
    INDEX 01 00:28:38
  TRACK 34 AUDIO
    TITLE "Step2_Track09_34"
    INDEX 01 00:28:65
  TRACK 35 AUDIO
    TITLE "Step2_Track09_35"
    INDEX 01 00:30:70
  TRACK 36 AUDIO
    TITLE "Step2_Track09_36"
    INDEX 01 00:31:25
  TRACK 37 AUDIO
    TITLE "Step2_Track09_37"
    INDEX 01 00:32:28
  TRACK 38 AUDIO
    TITLE "Step2_Track09_38"
    INDEX 01 00:32:40
  TRACK 39 AUDIO
    TITLE "Step2_Track09_39"
    INDEX 01 00:34:35
  TRACK 40 AUDIO
    TITLE "Step2_Track09_40"
    INDEX 01 00:34:68
  TRACK 41 AUDIO
    TITLE "Step2_Track09_41"
    INDEX 01 00:35:65
  TRACK 42 AUDIO
    TITLE "Step2_Track09_42"
    INDEX 01 00:36:12
  TRACK 43 AUDIO
    TITLE "Step2_Track09_43"
    INDEX 01 00:38:30
